<?xml version="1.0" standalone="no"?>
<!DOCTYPE svg PUBLIC "-//W3C//DTD SVG 1.1//EN" "http://www.w3.org/Graphics/SVG/1.1/DTD/svg11.dtd">
<svg xmlns="http://www.w3.org/2000/svg" id="Layer_1" data-name="Layer 1" viewBox="0 0 2354.5 2494.18" width="2354.5" height="2494.179931640625"><defs><style>.cls-1{fill:#b3b3b3;}.cls-2{fill:#a6120d;}.cls-3{fill:#dd1b16;}.cls-4{fill:#f2f2f2;}</style></defs><path class="cls-1" d="M1586.26,3.16l-1173.49,413L598.21,1953.6l989.29,543.73,994.4-551.1L2767.27,408.82Z" transform="translate(-412.77 -3.16)"/><path class="cls-2" d="M2650.23,497.68,1583.52,133.92V2367.43l893.95-494.75,172.75-1375Z" transform="translate(-412.77 -3.16)"/><path class="cls-3" d="M544.45,504.24l158.91,1375,880.14,488.18V133.89l-1039,370.34Z" transform="translate(-412.77 -3.16)"/><path class="cls-4" d="M1877.15,1322.92l-293.63,137.31H1274l-145.47,363.88-270.59,5L1583.52,215l293.63,1107.9Zm-28.38-69.13L1585.48,732.55l-216,512.27h214l265.26,9Z" transform="translate(-412.77 -3.16)"/><path class="cls-1" d="M1583.51,215l2,517.53,245,512.67H1584.07l-.56,214.68,340.78.33,159.28,368.94,258.91,4.79L1583.51,215Z" transform="translate(-412.77 -3.16)"/></svg>